<svg xmlns="http://www.w3.org/2000/svg" viewBox="0 0 1200 800" width="1200" height="800">
  <defs>
    <linearGradient id="headerGrad" x1="0%" y1="0%" x2="100%" y2="0%">
      <stop offset="0%" style="stop-color:#1e293b;stop-opacity:1" />
      <stop offset="100%" style="stop-color:#334155;stop-opacity:1" />
    </linearGradient>
    <filter id="shadow" x="-20%" y="-20%" width="140%" height="140%">
      <feDropShadow dx="0" dy="2" stdDeviation="3" flood-opacity="0.1"/>
    </filter>
  </defs>

  <!-- Background -->
  <rect width="1200" height="800" fill="#f1f5f9"/>

  <!-- Top Navigation -->
  <rect width="1200" height="60" fill="url(#headerGrad)"/>
  <text x="30" y="38" fill="white" font-family="system-ui, -apple-system, sans-serif" font-size="22" font-weight="bold">☸️ KubeAtlas</text>
  
  <!-- Nav Items -->
  <text x="350" y="38" fill="#94a3b8" font-family="system-ui, sans-serif" font-size="14">Dashboard</text>
  <text x="450" y="38" fill="#94a3b8" font-family="system-ui, sans-serif" font-size="14">Clusters</text>
  <text x="540" y="38" fill="#94a3b8" font-family="system-ui, sans-serif" font-size="14">Namespaces</text>
  <text x="650" y="38" fill="#94a3b8" font-family="system-ui, sans-serif" font-size="14">Dependencies</text>
  <text x="770" y="38" fill="white" font-family="system-ui, sans-serif" font-size="14" font-weight="600">Documents</text>
  <text x="870" y="38" fill="#94a3b8" font-family="system-ui, sans-serif" font-size="14">Teams</text>
  
  <!-- User Avatar -->
  <circle cx="1150" cy="30" r="18" fill="#3b82f6"/>
  <text x="1150" y="35" fill="white" font-family="system-ui, sans-serif" font-size="12" text-anchor="middle">👤</text>

  <!-- Sidebar -->
  <rect x="0" y="60" width="240" height="740" fill="white"/>
  <text x="45" y="105" fill="#64748b" font-family="system-ui, sans-serif" font-size="14">📊 Dashboard</text>
  <text x="45" y="150" fill="#64748b" font-family="system-ui, sans-serif" font-size="14">🖥️ Clusters</text>
  <text x="45" y="195" fill="#64748b" font-family="system-ui, sans-serif" font-size="14">📦 Namespaces</text>
  <text x="45" y="240" fill="#64748b" font-family="system-ui, sans-serif" font-size="14">🔗 Dependencies</text>
  
  <rect x="15" y="260" width="210" height="40" rx="6" fill="#eff6ff"/>
  <text x="45" y="285" fill="#3b82f6" font-family="system-ui, sans-serif" font-size="14" font-weight="600">📄 Documents</text>
  
  <text x="45" y="325" fill="#64748b" font-family="system-ui, sans-serif" font-size="14">👥 Teams</text>

  <!-- Main Content -->
  <text x="270" y="100" fill="#1e293b" font-family="system-ui, sans-serif" font-size="28" font-weight="bold">Documents</text>
  <text x="270" y="125" fill="#64748b" font-family="system-ui, sans-serif" font-size="14">Centralized documentation repository</text>
  
  <!-- Add New Button -->
  <rect x="1060" y="85" width="95" height="40" rx="6" fill="#3b82f6"/>
  <text x="1107" y="110" fill="white" font-family="system-ui, sans-serif" font-size="14" font-weight="600" text-anchor="middle">➕ New</text>

  <!-- Filters -->
  <rect x="270" y="150" width="300" height="45" rx="8" fill="white" stroke="#e2e8f0"/>
  <text x="290" y="178" fill="#94a3b8" font-family="system-ui, sans-serif" font-size="14">🔍 Search documents...</text>
  
  <rect x="585" y="150" width="150" height="45" rx="8" fill="white" stroke="#e2e8f0"/>
  <text x="605" y="178" fill="#64748b" font-family="system-ui, sans-serif" font-size="14">Category ▼</text>
  
  <rect x="750" y="150" width="130" height="45" rx="8" fill="white" stroke="#e2e8f0"/>
  <text x="770" y="178" fill="#64748b" font-family="system-ui, sans-serif" font-size="14">Type ▼</text>
  
  <rect x="895" y="150" width="150" height="45" rx="8" fill="white" stroke="#e2e8f0"/>
  <text x="915" y="178" fill="#64748b" font-family="system-ui, sans-serif" font-size="14">Sort by: Updated ▼</text>

  <!-- Document List -->
  <rect x="270" y="220" width="885" height="530" rx="10" fill="white" filter="url(#shadow)"/>
  
  <!-- Document Item 1 -->
  <rect x="290" y="240" width="845" height="90" rx="8" fill="#f8fafc"/>
  <rect x="305" y="255" width="45" height="45" rx="6" fill="#dbeafe"/>
  <text x="327" y="285" fill="#1e40af" font-family="system-ui, sans-serif" font-size="20" text-anchor="middle">📄</text>
  <text x="365" y="275" fill="#1e293b" font-family="system-ui, sans-serif" font-size="16" font-weight="600">Payment Service Runbook</text>
  <text x="365" y="295" fill="#64748b" font-family="system-ui, sans-serif" font-size="13">Operational procedures for payment processing service</text>
  <rect x="365" y="305" width="80" height="20" rx="4" fill="#eff6ff"/>
  <text x="405" y="318" fill="#3b82f6" font-family="system-ui, sans-serif" font-size="10" text-anchor="middle">Runbooks</text>
  <rect x="455" y="305" width="90" height="20" rx="4" fill="#f0fdf4"/>
  <text x="500" y="318" fill="#22c55e" font-family="system-ui, sans-serif" font-size="10" text-anchor="middle">Markdown</text>
  <text x="750" y="280" fill="#64748b" font-family="system-ui, sans-serif" font-size="13">Platform Team</text>
  <text x="750" y="300" fill="#94a3b8" font-family="system-ui, sans-serif" font-size="12">24 KB</text>
  <text x="980" y="285" fill="#64748b" font-family="system-ui, sans-serif" font-size="13">2 hours ago</text>
  <text x="1080" y="285" fill="#64748b" font-family="system-ui, sans-serif" font-size="18">⋮</text>
  
  <!-- Document Item 2 -->
  <rect x="290" y="345" width="845" height="90" rx="8" fill="white"/>
  <rect x="305" y="360" width="45" height="45" rx="6" fill="#fce7f3"/>
  <text x="327" y="390" fill="#be185d" font-family="system-ui, sans-serif" font-size="20" text-anchor="middle">📊</text>
  <text x="365" y="380" fill="#1e293b" font-family="system-ui, sans-serif" font-size="16" font-weight="600">Architecture Diagram - Auth Flow</text>
  <text x="365" y="400" fill="#64748b" font-family="system-ui, sans-serif" font-size="13">Complete authentication and authorization flow</text>
  <rect x="365" y="410" width="90" height="20" rx="4" fill="#fdf4ff"/>
  <text x="410" y="423" fill="#a855f7" font-family="system-ui, sans-serif" font-size="10" text-anchor="middle">Architecture</text>
  <rect x="465" y="410" width="80" height="20" rx="4" fill="#fef3c7"/>
  <text x="505" y="423" fill="#d97706" font-family="system-ui, sans-serif" font-size="10" text-anchor="middle">Draw.io</text>
  <text x="750" y="385" fill="#64748b" font-family="system-ui, sans-serif" font-size="13">Security Team</text>
  <text x="750" y="405" fill="#94a3b8" font-family="system-ui, sans-serif" font-size="12">156 KB</text>
  <text x="980" y="390" fill="#64748b" font-family="system-ui, sans-serif" font-size="13">1 day ago</text>
  <text x="1080" y="390" fill="#64748b" font-family="system-ui, sans-serif" font-size="18">⋮</text>
  
  <!-- Document Item 3 -->
  <rect x="290" y="450" width="845" height="90" rx="8" fill="#f8fafc"/>
  <rect x="305" y="465" width="45" height="45" rx="6" fill="#fee2e2"/>
  <text x="327" y="495" fill="#dc2626" font-family="system-ui, sans-serif" font-size="20" text-anchor="middle">📋</text>
  <text x="365" y="485" fill="#1e293b" font-family="system-ui, sans-serif" font-size="16" font-weight="600">SLA Document - Payment APIs</text>
  <text x="365" y="505" fill="#64748b" font-family="system-ui, sans-serif" font-size="13">Service level agreement for payment endpoints</text>
  <rect x="365" y="515" width="50" height="20" rx="4" fill="#fef2f2"/>
  <text x="390" y="528" fill="#ef4444" font-family="system-ui, sans-serif" font-size="10" text-anchor="middle">SLA</text>
  <rect x="425" y="515" width="60" height="20" rx="4" fill="#f3f4f6"/>
  <text x="455" y="528" fill="#6b7280" font-family="system-ui, sans-serif" font-size="10" text-anchor="middle">PDF</text>
  <text x="750" y="490" fill="#64748b" font-family="system-ui, sans-serif" font-size="13">Product Team</text>
  <text x="750" y="510" fill="#94a3b8" font-family="system-ui, sans-serif" font-size="12">1.2 MB</text>
  <text x="980" y="495" fill="#64748b" font-family="system-ui, sans-serif" font-size="13">1 week ago</text>
  <text x="1080" y="495" fill="#64748b" font-family="system-ui, sans-serif" font-size="18">⋮</text>
  
  <!-- Document Item 4 -->
  <rect x="290" y="555" width="845" height="90" rx="8" fill="white"/>
  <rect x="305" y="570" width="45" height="45" rx="6" fill="#d1fae5"/>
  <text x="327" y="600" fill="#059669" font-family="system-ui, sans-serif" font-size="20" text-anchor="middle">🔐</text>
  <text x="365" y="590" fill="#1e293b" font-family="system-ui, sans-serif" font-size="16" font-weight="600">Security Policy - Data Classification</text>
  <text x="365" y="610" fill="#64748b" font-family="system-ui, sans-serif" font-size="13">Data classification and handling procedures</text>
  <rect x="365" y="620" width="70" height="20" rx="4" fill="#f0fdf4"/>
  <text x="400" y="633" fill="#16a34a" font-family="system-ui, sans-serif" font-size="10" text-anchor="middle">Security</text>
  <rect x="445" y="620" width="90" height="20" rx="4" fill="#eff6ff"/>
  <text x="490" y="633" fill="#3b82f6" font-family="system-ui, sans-serif" font-size="10" text-anchor="middle">Confluence</text>
  <text x="750" y="595" fill="#64748b" font-family="system-ui, sans-serif" font-size="13">Security Team</text>
  <text x="750" y="615" fill="#94a3b8" font-family="system-ui, sans-serif" font-size="12">External Link</text>
  <text x="980" y="600" fill="#64748b" font-family="system-ui, sans-serif" font-size="13">2 weeks ago</text>
  <text x="1080" y="600" fill="#64748b" font-family="system-ui, sans-serif" font-size="18">⋮</text>

  <!-- Pagination -->
  <text x="270" y="770" fill="#64748b" font-family="system-ui, sans-serif" font-size="13">Showing 4 of 24 documents</text>
  <text x="960" y="770" fill="#64748b" font-family="system-ui, sans-serif" font-size="13">←  1  2  3  ...  6  →</text>
</svg>